<svg version="1.1" id="Layer_1" xmlns="http://www.w3.org/2000/svg" xmlns:xlink="http://www.w3.org/1999/xlink" x="0px" y="0px"
	 width="100%" viewBox="0 0 200 200" enable-background="new 0 0 200 200" xml:space="preserve">
<path fill="#FFFFFF" opacity="1.000000" stroke="none" 
	d="
M1.000000,75.000000 
	C1.000000,50.000008 1.000000,25.500011 1.000000,1.000013 
	C67.666649,1.000009 134.333298,1.000009 200.999954,1.000004 
	C200.999969,67.666634 200.999969,134.333267 200.999985,200.999908 
	C134.333389,200.999939 67.666771,200.999939 1.000080,200.999969 
	C1.000000,159.166672 1.000000,117.333336 1.000000,75.000000 
M189.231415,11.022476 
	C188.166473,11.063947 187.101517,11.105417 185.247192,10.839440 
	C183.630341,10.639525 182.013580,10.265759 180.396622,10.264884 
	C127.080505,10.236062 73.764374,10.240818 20.448244,10.255766 
	C18.958538,10.256184 17.468876,10.422055 15.447033,10.350212 
	C15.273649,10.415545 15.100266,10.480880 14.498452,10.346210 
	C14.498452,10.346210 14.074455,10.555447 13.426582,10.330905 
	C12.333639,10.884119 11.240695,11.437333 10.016869,12.663915 
	C10.085155,13.111548 10.153441,13.559182 10.093782,14.935463 
	C10.133488,30.955175 10.173193,46.974888 10.021331,63.707630 
	C10.024056,64.444710 10.026781,65.181793 9.742201,66.598816 
	C8.407806,69.253952 9.312426,70.536400 12.165622,71.061768 
	C13.193229,71.250984 14.060298,72.312042 14.443340,73.170380 
	C12.960859,73.444313 11.478378,73.718239 9.477366,74.082443 
	C9.637696,74.405777 9.798026,74.729103 9.987547,75.043419 
	C9.987547,75.043419 9.982000,75.013557 10.037279,75.947784 
	C10.089272,91.965897 10.141264,107.984016 10.073256,124.499542 
	C10.116218,124.664604 10.159179,124.829659 10.077546,125.649994 
	C10.018757,126.089890 9.959968,126.529793 9.438718,127.091339 
	C9.128531,127.277153 8.995412,127.549507 9.015630,128.803497 
	C9.374512,131.547195 9.733394,134.290909 10.005456,137.697571 
	C10.063875,138.137527 10.122295,138.577484 10.065368,139.945999 
	C10.112434,156.291901 10.159502,172.637802 9.938939,189.536606 
	C10.303428,190.303589 10.667917,191.070557 11.781513,191.965012 
	C12.228995,191.795151 12.676875,191.475800 13.123899,191.476990 
	C30.357306,191.522903 47.590633,191.598160 65.303940,192.331543 
	C68.001144,192.155701 70.698349,191.979858 73.713974,191.690704 
	C73.713974,191.690704 73.986580,191.890503 74.155701,192.254807 
	C74.424934,192.128754 74.694160,192.002701 75.596260,191.574066 
	C89.736443,191.574554 103.876808,191.615494 118.016663,191.547684 
	C121.643921,191.530304 125.269524,191.169678 129.747925,190.988678 
	C132.601242,191.291245 135.454575,191.593811 139.173065,191.631027 
	C141.002563,191.617615 142.832092,191.605286 144.661575,191.590652 
	C159.447708,191.472382 174.233826,191.353638 189.587387,191.499588 
	C190.329407,191.002686 191.071426,190.505768 191.945602,189.155548 
	C191.883377,187.434555 191.821152,185.713562 191.920151,183.068665 
	C191.925522,158.301743 191.951019,133.534790 191.931213,108.767883 
	C191.905960,77.188591 191.844101,45.609344 191.991592,13.283342 
	C191.334991,12.575963 190.678391,11.868584 189.231415,11.022476 
z"/>
<path fill="#174674" opacity="1.000000" stroke="none" 
	d="
M15.979194,10.510777 
	C17.468876,10.422055 18.958538,10.256184 20.448244,10.255766 
	C73.764374,10.240818 127.080505,10.236062 180.396622,10.264884 
	C182.013580,10.265759 183.630341,10.639525 185.865952,11.232733 
	C187.347092,11.757086 188.209457,11.888146 188.917740,12.320078 
	C187.173615,14.281688 185.608475,15.967100 183.989700,17.599321 
	C168.662308,33.054195 153.325790,48.500011 137.763763,64.057442 
	C137.361801,64.444611 137.188019,64.722771 136.980469,64.976608 
	C136.946701,64.952271 136.863770,64.945259 136.613617,64.979782 
	C136.194748,65.025177 136.026016,65.036057 135.399948,65.103180 
	C100.120033,65.204262 65.297462,65.260841 30.474874,65.281158 
	C25.319069,65.284164 20.163162,65.115852 14.914797,64.857437 
	C14.545896,64.800499 14.269500,64.912926 13.667539,65.133850 
	C12.895914,65.170753 12.449855,65.099152 12.005070,64.769699 
	C12.004898,64.339973 12.003450,64.168098 12.000932,63.527794 
	C11.999792,48.393276 12.057205,33.726646 11.921431,19.061808 
	C11.905784,17.371710 10.814369,15.691571 10.221727,14.006816 
	C10.153441,13.559182 10.085155,13.111548 10.462762,12.331945 
	C12.598835,11.503576 14.289014,11.007175 15.979194,10.510777 
z"/>
<path fill="#130A41" opacity="1.000000" stroke="none" 
	d="
M137.991913,63.948441 
	C153.325790,48.500011 168.662308,33.054195 183.989700,17.599321 
	C185.608475,15.967100 187.173615,14.281688 189.141449,12.305983 
	C189.519257,11.991015 189.967407,11.956055 190.222778,12.129040 
	C190.650909,12.880260 190.823654,13.458495 190.826797,14.416652 
	C190.438416,16.089252 190.029007,17.381815 190.028244,18.674623 
	C189.996170,72.426109 189.987823,126.177628 190.074219,179.928986 
	C190.076401,181.284424 191.172836,182.638077 191.758926,183.992569 
	C191.821152,185.713562 191.883377,187.434555 191.593842,189.582947 
	C190.501358,190.418579 189.760651,190.826813 189.019958,191.235046 
	C174.233826,191.353638 159.447708,191.472382 144.661575,191.590652 
	C142.832092,191.605286 141.002563,191.617615 138.628540,191.608765 
	C138.084015,191.586487 137.924438,191.239685 137.835968,190.970078 
	C137.464844,190.459854 137.182190,190.219223 136.781281,189.524139 
	C136.702682,148.148926 136.742325,107.228172 136.836487,65.968933 
	C136.881943,65.402046 136.872849,65.173653 136.863770,64.945259 
	C136.863770,64.945259 136.946701,64.952271 137.201797,64.862701 
	C137.729111,64.559158 137.907455,64.284256 137.991913,63.948441 
z"/>
<path fill="#21B9A0" opacity="1.000000" stroke="none" 
	d="
M9.901178,126.969688 
	C9.959968,126.529793 10.018757,126.089890 10.279930,125.226028 
	C10.385961,124.535416 10.289609,124.268776 10.193256,124.002129 
	C10.141264,107.984016 10.089272,91.965897 10.479462,75.472992 
	C47.210232,74.998535 83.498871,75.020882 119.787239,74.931236 
	C121.516792,74.926964 123.243896,73.931557 125.307495,73.302185 
	C126.567078,73.677284 127.491310,74.147903 128.128693,74.845436 
	C127.536049,75.689232 127.230232,76.306122 126.560318,76.944382 
	C125.219582,77.482643 124.036888,77.796921 123.298424,78.547989 
	C116.400597,85.563583 109.685577,92.761459 102.705750,99.693214 
	C95.498756,106.850578 87.991631,113.705208 80.755135,120.833725 
	C78.591232,122.965332 76.895248,125.571960 74.617538,127.992386 
	C73.758514,128.066849 73.266861,128.109894 72.859512,128.130310 
	C72.943832,128.107666 72.951836,128.282089 72.718842,127.919601 
	C71.698959,127.373413 70.912361,127.030899 70.125114,127.029396 
	C53.268681,126.997276 36.412071,126.979660 19.555902,127.053215 
	C18.381273,127.058334 17.209833,127.795113 15.750479,128.351532 
	C14.363726,128.533264 13.263403,128.555130 12.006977,128.417877 
	C11.582543,128.127151 11.306147,128.015518 10.886948,127.709076 
	C10.468535,127.319435 10.184856,127.144562 9.901178,126.969688 
z"/>
<path fill="#FEFEFD" opacity="1.000000" stroke="none" 
	d="
M128.415543,74.618523 
	C127.491310,74.147903 126.567078,73.677284 124.847809,73.218590 
	C109.609871,73.216347 95.166908,73.220047 80.724052,73.183815 
	C58.816208,73.128860 36.908436,73.046158 15.000629,72.975235 
	C14.060298,72.312042 13.193229,71.250984 12.165622,71.061768 
	C9.312426,70.536400 8.407806,69.253952 10.117039,66.288925 
	C10.853734,65.920578 11.051839,65.708878 11.319835,65.277145 
	C11.553479,65.210358 12.003795,65.027557 12.003795,65.027557 
	C12.449855,65.099152 12.895914,65.170753 13.920990,65.209885 
	C14.669105,65.127213 14.838204,65.077011 15.007303,65.026802 
	C20.163162,65.115852 25.319069,65.284164 30.474874,65.281158 
	C65.297462,65.260841 100.120033,65.204262 135.489655,65.362442 
	C136.285110,65.812775 136.533524,66.060097 136.781952,66.307419 
	C136.742325,107.228172 136.702682,148.148926 136.720016,189.881042 
	C137.159470,190.874832 137.541962,191.057251 137.924438,191.239685 
	C137.924438,191.239685 138.084015,191.586487 138.195953,191.741425 
	C135.454575,191.593811 132.601242,191.291245 129.337952,190.625916 
	C128.790497,185.859665 128.653015,181.456177 128.629517,176.593048 
	C128.761917,161.020172 128.823517,145.906815 128.786606,130.793716 
	C128.750122,115.855232 128.614105,100.916992 128.615997,85.615067 
	C128.647415,84.508774 128.584610,83.766060 128.630402,82.665199 
	C128.659897,80.832924 128.580765,79.358795 128.583588,77.481216 
	C128.582230,76.258026 128.498886,75.438278 128.415543,74.618523 
z"/>
<path fill="#FFA50D" opacity="1.000000" stroke="none" 
	d="
M10.206570,188.983704 
	C10.159502,172.637802 10.112434,156.291901 10.330458,139.475311 
	C10.595549,139.004608 11.013158,139.000946 11.320089,138.965149 
	C12.082484,138.336700 12.537949,137.744034 13.406360,137.071411 
	C29.212427,136.871872 44.605549,136.752289 60.020321,136.954742 
	C61.013992,137.851730 61.986008,138.426682 62.813629,139.304291 
	C55.799839,146.236328 48.898979,152.833527 42.075352,159.509674 
	C39.017647,162.501312 36.110512,165.647079 33.142628,168.730209 
	C29.373438,172.645752 25.776007,176.745728 21.796644,180.434006 
	C18.445055,183.540405 14.653371,186.171982 10.844097,189.003845 
	C10.631701,188.993958 10.206570,188.983704 10.206570,188.983704 
z"/>
<path fill="#F28101" opacity="1.000000" stroke="none" 
	d="
M11.056494,189.013733 
	C14.653371,186.171982 18.445055,183.540405 21.796644,180.434006 
	C25.776007,176.745728 29.373438,172.645752 33.142628,168.730209 
	C36.110512,165.647079 39.017647,162.501312 42.075352,159.509674 
	C48.898979,152.833527 55.799839,146.236328 62.833145,139.047699 
	C63.002789,138.317017 63.008526,138.145599 63.370476,137.979675 
	C64.199272,137.938858 64.671852,137.892517 65.222214,138.319427 
	C65.306267,147.281860 65.379387,155.771667 65.300690,164.260071 
	C65.215965,173.397247 64.988922,182.533112 64.823975,191.669540 
	C47.590633,191.598160 30.357306,191.522903 13.123899,191.476990 
	C12.676875,191.475800 12.228995,191.795151 11.395655,191.548264 
	C11.025362,190.425583 11.040928,189.719666 11.056494,189.013733 
z"/>
<path fill="#FEFEFD" opacity="1.000000" stroke="none" 
	d="
M65.063950,192.000549 
	C64.988922,182.533112 65.215965,173.397247 65.300690,164.260071 
	C65.379387,155.771667 65.306267,147.281860 65.204025,137.967758 
	C64.342247,136.890656 63.576431,136.638474 62.453812,136.354721 
	C61.397564,136.426346 60.698116,136.529526 59.998669,136.632706 
	C44.605549,136.752289 29.212427,136.871872 13.079851,137.002808 
	C11.900392,137.060547 11.460387,137.106964 10.792818,137.088821 
	C10.565253,137.024261 10.092277,137.034607 10.092277,137.034607 
	C9.733394,134.290909 9.374512,131.547195 9.241245,128.408310 
	C9.466860,128.013123 9.888207,128.140396 10.097841,128.391296 
	C10.926009,128.620453 11.544544,128.598724 12.163080,128.576996 
	C13.263403,128.555130 14.363726,128.533264 16.210146,128.439636 
	C35.621441,128.339264 54.286636,128.310669 72.951836,128.282074 
	C72.951836,128.282089 72.943832,128.107666 72.991684,128.570465 
	C73.136490,148.310211 73.233452,167.587173 73.203613,187.247437 
	C73.100632,188.435318 73.124443,189.239899 73.106651,190.343506 
	C73.175217,191.029694 73.285385,191.416870 73.395554,191.804031 
	C70.698349,191.979858 68.001144,192.155701 65.063950,192.000549 
z"/>
<path fill="#0C023E" opacity="1.000000" stroke="none" 
	d="
M191.839539,183.530609 
	C191.172836,182.638077 190.076401,181.284424 190.074219,179.928986 
	C189.987823,126.177628 189.996170,72.426109 190.028244,18.674623 
	C190.029007,17.381815 190.438416,16.089252 191.027252,14.417841 
	C191.397293,14.039106 191.798004,14.030077 191.798004,14.030077 
	C191.844101,45.609344 191.905960,77.188591 191.931213,108.767883 
	C191.951019,133.534790 191.925522,158.301743 191.839539,183.530609 
z"/>
<path fill="#15B496" opacity="1.000000" stroke="none" 
	d="
M14.721985,73.072807 
	C36.908436,73.046158 58.816208,73.128860 80.724052,73.183815 
	C95.166908,73.220047 109.609871,73.216347 124.512466,73.314117 
	C123.243896,73.931557 121.516792,74.926964 119.787239,74.931236 
	C83.498871,75.020882 47.210232,74.998535 10.451822,75.005875 
	C9.982000,75.013557 9.987547,75.043419 9.991809,74.783066 
	C9.996012,74.345856 9.995954,74.169006 9.995897,73.992165 
	C11.478378,73.718239 12.960859,73.444313 14.721985,73.072807 
z"/>
<path fill="#0C9278" opacity="1.000000" stroke="none" 
	d="
M73.554764,191.747375 
	C73.285385,191.416870 73.175217,191.029694 73.362091,190.126221 
	C73.816658,188.731216 73.974174,187.852524 74.345345,186.982147 
	C74.558990,186.990463 74.986427,187.002655 75.001923,187.401398 
	C75.830833,191.761841 79.004913,189.278015 81.474991,189.996262 
	C94.958076,189.995850 107.973297,189.993073 121.427063,189.993286 
	C123.447090,189.887726 125.028564,189.779175 127.003891,189.643585 
	C127.003891,187.185272 126.807899,185.199432 127.056763,183.271027 
	C127.327835,181.170471 128.011642,179.123184 128.515533,177.052673 
	C128.653015,181.456177 128.790497,185.859665 128.911926,190.614960 
	C125.269524,191.169678 121.643921,191.530304 118.016663,191.547684 
	C103.876808,191.615494 89.736443,191.574554 75.034378,191.640625 
	C74.310516,191.768295 74.148544,191.829391 73.986580,191.890503 
	C73.986580,191.890503 73.713974,191.690704 73.554764,191.747375 
z"/>
<path fill="#12416E" opacity="1.000000" stroke="none" 
	d="
M10.157755,14.471140 
	C10.814369,15.691571 11.905784,17.371710 11.921431,19.061808 
	C12.057205,33.726646 11.999792,48.393276 11.753143,63.529854 
	C11.506427,64.000336 11.010962,64.005699 10.931882,63.798134 
	C10.709579,63.316677 10.496277,63.118019 10.212897,62.994598 
	C10.173193,46.974888 10.133488,30.955175 10.157755,14.471140 
z"/>
<path fill="#0B3B6B" opacity="1.000000" stroke="none" 
	d="
M15.713114,10.430494 
	C14.289014,11.007175 12.598835,11.503576 10.528204,11.995262 
	C11.240695,11.437333 12.333639,10.884119 13.836178,10.547706 
	C14.245773,10.764506 14.629135,10.802741 14.629135,10.802741 
	C14.629135,10.802741 14.926882,10.546214 14.926882,10.546214 
	C15.100266,10.480880 15.273649,10.415545 15.713114,10.430494 
z"/>
<path fill="#070036" opacity="1.000000" stroke="none" 
	d="
M189.303680,191.367310 
	C189.760651,190.826813 190.501358,190.418579 191.527756,190.009598 
	C191.071426,190.505768 190.329407,191.002686 189.303680,191.367310 
z"/>
<path fill="#FEAC22" opacity="1.000000" stroke="none" 
	d="
M10.844097,189.003845 
	C11.040928,189.719666 11.025362,190.425583 11.021101,191.484528 
	C10.667917,191.070557 10.303428,190.303589 10.072754,189.260162 
	C10.206570,188.983704 10.631701,188.993958 10.844097,189.003845 
z"/>
<path fill="#292150" opacity="1.000000" stroke="none" 
	d="
M191.894806,13.656710 
	C191.798004,14.030077 191.397293,14.039106 191.196838,14.037918 
	C190.823654,13.458495 190.650909,12.880260 190.238708,11.930706 
	C189.999268,11.559387 190.021790,11.161211 190.021790,11.161207 
	C190.678391,11.868584 191.334991,12.575963 191.894806,13.656710 
z"/>
<path fill="#0B3B6B" opacity="1.000000" stroke="none" 
	d="
M189.626602,11.091844 
	C190.021790,11.161211 189.999268,11.559387 189.983337,11.757721 
	C189.967407,11.956055 189.519257,11.991015 189.295547,12.005111 
	C188.209457,11.888146 187.347092,11.757086 186.260651,11.386456 
	C187.101517,11.105417 188.166473,11.063947 189.626602,11.091844 
z"/>
<path fill="#2B587F" opacity="1.000000" stroke="none" 
	d="
M10.117114,63.351112 
	C10.496277,63.118019 10.709579,63.316677 10.944971,64.132942 
	C11.053491,64.898193 11.069840,65.121063 11.086190,65.343941 
	C11.051839,65.708878 10.853734,65.920578 10.260692,65.948959 
	C10.026781,65.181793 10.024056,64.444710 10.117114,63.351112 
z"/>
<path fill="#3BC0A7" opacity="1.000000" stroke="none" 
	d="
M9.888207,128.140396 
	C9.888207,128.140396 9.466860,128.013123 9.253111,127.960770 
	C8.995412,127.549507 9.128531,127.277153 9.669949,127.030518 
	C10.184856,127.144562 10.468535,127.319435 10.604034,127.766098 
	C10.266640,128.072052 10.077423,128.106232 9.888207,128.140396 
z"/>
<path fill="#FEAC22" opacity="1.000000" stroke="none" 
	d="
M10.048866,137.366089 
	C10.092277,137.034607 10.565253,137.024261 10.786398,137.396698 
	C11.009414,138.179749 11.011286,138.590347 11.013158,139.000946 
	C11.013158,139.000946 10.595549,139.004608 10.388132,139.011017 
	C10.122295,138.577484 10.063875,138.137527 10.048866,137.366089 
z"/>
<path fill="#3BC0A7" opacity="1.000000" stroke="none" 
	d="
M10.133256,124.250839 
	C10.289609,124.268776 10.385961,124.535416 10.342227,124.898392 
	C10.159179,124.829659 10.116218,124.664604 10.133256,124.250839 
z"/>
<path fill="#FEFEFD" opacity="1.000000" stroke="none" 
	d="
M74.071136,192.072662 
	C74.148544,191.829391 74.310516,191.768295 74.717941,191.791901 
	C74.694160,192.002701 74.424934,192.128754 74.071136,192.072662 
z"/>
<path fill="#3BC0A7" opacity="1.000000" stroke="none" 
	d="
M9.736631,74.037308 
	C9.995954,74.169006 9.996012,74.345856 9.977214,74.787567 
	C9.798026,74.729103 9.637696,74.405777 9.736631,74.037308 
z"/>
<path fill="#174674" opacity="1.000000" stroke="none" 
	d="
M14.712667,10.446213 
	C14.926882,10.546214 14.629135,10.802741 14.629135,10.802741 
	C14.629135,10.802741 14.245773,10.764506 14.160114,10.659977 
	C14.074455,10.555447 14.498452,10.346210 14.712667,10.446213 
z"/>
<path fill="#053768" opacity="1.000000" stroke="none" 
	d="
M136.836487,65.968933 
	C136.533524,66.060097 136.285110,65.812775 135.946991,65.306198 
	C136.026016,65.036057 136.194748,65.025177 136.613617,64.979782 
	C136.872849,65.173653 136.881943,65.402046 136.836487,65.968933 
z"/>
<path fill="#070036" opacity="1.000000" stroke="none" 
	d="
M137.763763,64.057442 
	C137.907455,64.284256 137.729111,64.559158 137.235565,64.887039 
	C137.188019,64.722771 137.361801,64.444611 137.763763,64.057442 
z"/>
<path fill="#053768" opacity="1.000000" stroke="none" 
	d="
M14.914797,64.857437 
	C14.838204,65.077011 14.669105,65.127213 14.246555,65.101387 
	C14.269500,64.912926 14.545896,64.800499 14.914797,64.857437 
z"/>
<path fill="#053768" opacity="1.000000" stroke="none" 
	d="
M11.319835,65.277145 
	C11.069840,65.121063 11.053491,64.898193 11.024052,64.340508 
	C11.010962,64.005699 11.506427,64.000336 11.754215,63.998276 
	C12.003450,64.168098 12.004898,64.339973 12.005070,64.769699 
	C12.003795,65.027557 11.553479,65.210358 11.319835,65.277145 
z"/>
<path fill="#070036" opacity="1.000000" stroke="none" 
	d="
M137.835968,190.970078 
	C137.541962,191.057251 137.159470,190.874832 136.838257,190.335510 
	C137.182190,190.219223 137.464844,190.459854 137.835968,190.970078 
z"/>
<path fill="#1B9984" opacity="1.000000" stroke="none" 
	d="
M128.629517,176.593048 
	C128.011642,179.123184 127.327835,181.170471 127.056763,183.271027 
	C126.807899,185.199432 127.003891,187.185272 127.003891,189.643585 
	C125.028564,189.779175 123.447090,189.887726 121.134171,189.697617 
	C107.830299,189.285126 95.257942,189.159088 82.685265,189.097763 
	C82.127350,189.095047 81.566559,189.681732 81.007111,189.993881 
	C79.004913,189.278015 75.830833,191.761841 75.006508,187.000717 
	C74.998222,185.132950 75.000854,184.064621 75.300156,182.702698 
	C75.712151,165.500885 75.836563,148.592712 75.902802,131.684326 
	C75.904991,131.125412 75.316658,130.564194 75.000816,129.663757 
	C74.993645,128.869308 74.989265,128.415131 74.984894,127.960953 
	C76.895248,125.571960 78.591232,122.965332 80.755135,120.833725 
	C87.991631,113.705208 95.498756,106.850578 102.705750,99.693214 
	C109.685577,92.761459 116.400597,85.563583 123.298424,78.547989 
	C124.036888,77.796921 125.219582,77.482643 126.754532,77.203537 
	C127.709114,77.589104 128.105362,77.736877 128.501617,77.884659 
	C128.580765,79.358795 128.659897,80.832924 128.352966,82.741241 
	C128.151855,84.109833 128.336807,85.044235 128.521774,85.978645 
	C128.614105,100.916992 128.750122,115.855232 128.786606,130.793716 
	C128.823517,145.906815 128.761917,161.020172 128.629517,176.593048 
z"/>
<path fill="#0C957B" opacity="1.000000" stroke="none" 
	d="
M75.003479,182.996292 
	C75.000854,184.064621 74.998222,185.132950 74.991013,186.601959 
	C74.986427,187.002655 74.558990,186.990463 74.147675,186.933075 
	C73.736359,186.875687 73.330406,186.864120 73.330406,186.864120 
	C73.233452,167.587173 73.136490,148.310211 72.907364,128.593109 
	C73.266861,128.109894 73.758514,128.066849 74.617531,127.992378 
	C74.989265,128.415131 74.993645,128.869308 74.999496,130.131927 
	C75.001801,148.292343 75.002640,165.644318 75.003479,182.996292 
z"/>
<path fill="#12B694" opacity="1.000000" stroke="none" 
	d="
M72.718842,127.919594 
	C54.286636,128.310669 35.621441,128.339264 16.496576,128.279755 
	C17.209833,127.795113 18.381273,127.058334 19.555902,127.053215 
	C36.412071,126.979660 53.268681,126.997276 70.125114,127.029396 
	C70.912361,127.030899 71.698959,127.373413 72.718842,127.919594 
z"/>
<path fill="#0F957C" opacity="1.000000" stroke="none" 
	d="
M128.583588,77.481216 
	C128.105362,77.736877 127.709114,77.589104 127.118637,77.182159 
	C127.230232,76.306122 127.536049,75.689232 128.128693,74.845436 
	C128.498886,75.438278 128.582230,76.258026 128.583588,77.481216 
z"/>
<path fill="#8ADACF" opacity="1.000000" stroke="none" 
	d="
M10.097841,128.391296 
	C10.077423,128.106232 10.266640,128.072052 10.738770,127.980865 
	C11.306147,128.015518 11.582543,128.127151 12.006977,128.417877 
	C11.544544,128.598724 10.926009,128.620453 10.097841,128.391296 
z"/>
<path fill="#0F957C" opacity="1.000000" stroke="none" 
	d="
M128.615997,85.615067 
	C128.336807,85.044235 128.151855,84.109833 128.244354,83.099380 
	C128.584610,83.766060 128.647415,84.508774 128.615997,85.615067 
z"/>
<path fill="#FEA306" opacity="1.000000" stroke="none" 
	d="
M60.020321,136.954742 
	C60.698116,136.529526 61.397564,136.426346 62.473846,136.621063 
	C62.905212,137.270706 62.959736,137.622437 63.014263,137.974167 
	C63.008526,138.145599 63.002789,138.317017 62.977539,138.745026 
	C61.986008,138.426682 61.013992,137.851730 60.020321,136.954742 
z"/>
<path fill="#FEA306" opacity="1.000000" stroke="none" 
	d="
M11.320089,138.965149 
	C11.011286,138.590347 11.009414,138.179749 11.013962,137.461273 
	C11.460387,137.106964 11.900392,137.060547 12.666904,137.082764 
	C12.537949,137.744034 12.082484,138.336700 11.320089,138.965149 
z"/>
<path fill="#FDC767" opacity="1.000000" stroke="none" 
	d="
M63.370476,137.979675 
	C62.959736,137.622437 62.905212,137.270706 62.830650,136.652618 
	C63.576431,136.638474 64.342247,136.890656 65.126251,137.494522 
	C64.671852,137.892517 64.199272,137.938858 63.370476,137.979675 
z"/>
<path fill="#5FB7AB" opacity="1.000000" stroke="none" 
	d="
M73.203613,187.247437 
	C73.330406,186.864120 73.736359,186.875687 73.934029,186.924774 
	C73.974174,187.852524 73.816658,188.731216 73.403702,189.827179 
	C73.124443,189.239899 73.100632,188.435318 73.203613,187.247437 
z"/>
<path fill="#249989" opacity="1.000000" stroke="none" 
	d="
M81.474991,189.996262 
	C81.566559,189.681732 82.127350,189.095047 82.685265,189.097763 
	C95.257942,189.159088 107.830299,189.285126 120.695618,189.694611 
	C107.973297,189.993073 94.958076,189.995850 81.474991,189.996262 
z"/>
<path fill="#249986" opacity="1.000000" stroke="none" 
	d="
M75.300156,182.702698 
	C75.002640,165.644318 75.001801,148.292343 75.002274,130.472198 
	C75.316658,130.564194 75.904991,131.125412 75.902802,131.684326 
	C75.836563,148.592712 75.712151,165.500885 75.300156,182.702698 
z"/>
</svg>